<svg width="30" height="30" viewBox="0 0 30 30" fill="none" xmlns="http://www.w3.org/2000/svg">
<path d="M7 24.3334H12.3333M23 24.3454V24.3334M1.66667 7.00002C1.66667 2.58669 2.58667 1.66669 7 1.66669H23C27.4133 1.66669 28.3333 2.58669 28.3333 7.00002V23C28.3333 27.4134 27.4133 28.3334 23 28.3334H7C2.58667 28.3334 1.66667 27.4134 1.66667 23V7.00002Z" stroke="#101828" stroke-width="2.4" stroke-linecap="round" stroke-linejoin="round"/>
<path d="M15 17.6667C17.9455 17.6667 20.3333 15.2789 20.3333 12.3333C20.3333 9.38781 17.9455 7 15 7C12.0545 7 9.66667 9.38781 9.66667 12.3333C9.66667 15.2789 12.0545 17.6667 15 17.6667Z" stroke="#101828" stroke-width="2.4" stroke-linecap="round" stroke-linejoin="round"/>
<path d="M19.6667 12.3334H21.6667M15 17V19M10.3333 12.3334H8.33333M15 7.66669V5.66669" stroke="#101828" stroke-width="2.4" stroke-linecap="round" stroke-linejoin="round"/>
</svg>
