<svg width="24" height="30" viewBox="0 0 24 30" fill="none" xmlns="http://www.w3.org/2000/svg">
<path fill-rule="evenodd" clip-rule="evenodd" d="M12.0747 0.666687H11.9253C9.47467 0.666687 7.53333 0.666687 6.01467 0.870687C4.452 1.08135 3.18667 1.52402 2.188 2.52135C1.19067 3.52002 0.747999 4.78535 0.537332 6.34802C0.333332 7.86802 0.333332 9.80802 0.333332 12.2587V16.408C0.333332 18.8587 0.333332 20.8 0.537332 22.3187C0.747999 23.8814 1.19067 25.1467 2.188 26.1454C2.80133 26.7574 3.51333 27.16 4.33333 27.4294V28.3334C4.33333 28.8854 4.78133 29.3334 5.33333 29.3334H6.66667C6.93188 29.3334 7.18624 29.228 7.37377 29.0405C7.56131 28.8529 7.66667 28.5986 7.66667 28.3334V27.9387C8.876 28 10.2867 28 11.9253 28H12.0747C13.7147 28 15.124 28 16.3333 27.9387V28.3334C16.3333 28.8854 16.7813 29.3334 17.3333 29.3334H18.6667C18.9319 29.3334 19.1862 29.228 19.3738 29.0405C19.5613 28.8529 19.6667 28.5986 19.6667 28.3334V27.4294C20.4867 27.16 21.2 26.7574 21.812 26.1454C22.8093 25.1467 23.252 23.8814 23.4627 22.3187C23.6667 20.7987 23.6667 18.8587 23.6667 16.408V12.26C23.6667 9.80935 23.6667 7.86802 23.4627 6.34935C23.252 4.78669 22.8093 3.52135 21.812 2.52269C20.8133 1.52535 19.548 1.08269 17.9853 0.87202C16.4653 0.66802 14.5253 0.66802 12.0747 0.66802M3.60267 3.93602C4.16667 3.37202 4.94 3.03335 6.28133 2.85335C7.652 2.66935 9.45733 2.66669 12 2.66669C14.5427 2.66669 16.3493 2.66935 17.72 2.85335C19.06 3.03335 19.8333 3.37202 20.3973 3.93602C20.9613 4.50002 21.3 5.27335 21.48 6.61469C21.664 7.98535 21.6667 9.79069 21.6667 12.3334V13.3334H2.33333V12.3334C2.33333 9.79069 2.336 7.98535 2.52 6.61335C2.7 5.27335 3.03867 4.50002 3.60267 3.93602ZM2.33333 15.3334H21.6667V16.3334C21.6667 18.876 21.664 20.6827 21.48 22.0534C21.3 23.3934 20.9613 24.1667 20.3973 24.7307C19.8333 25.2947 19.06 25.6334 17.7187 25.8134C16.348 25.9974 14.5427 26 12 26C9.45733 26 7.652 25.9974 6.28 25.8134C4.94 25.6334 4.16667 25.2947 3.60267 24.7307C3.03867 24.1667 2.7 23.3934 2.52 22.052C2.336 20.6827 2.33333 18.876 2.33333 16.3334V15.3334Z" fill="#101828"/>
</svg>
